<?xml version="1.0" encoding="UTF-8" standalone="no"?>
<svg
   xmlns:dc="http://purl.org/dc/elements/1.1/"
   xmlns:cc="http://creativecommons.org/ns#"
   xmlns:rdf="http://www.w3.org/1999/02/22-rdf-syntax-ns#"
   xmlns:svg="http://www.w3.org/2000/svg"
   xmlns="http://www.w3.org/2000/svg"
   xmlns:sodipodi="http://sodipodi.sourceforge.net/DTD/sodipodi-0.dtd"
   xmlns:inkscape="http://www.inkscape.org/namespaces/inkscape"
   width="26.350389mm"
   height="26.401583mm"
   version="1.1"
   viewBox="0 0 26.350389 26.401582"
   id="svg8"
   sodipodi:docname="ordina.svg"
   inkscape:version="0.92.2 (5c3e80d, 2017-08-06)"
   inkscape:export-filename="C:\Users\giulio.fattori.ENAS\AppData\Roaming\QGIS\QGIS3\profiles\default\python\plugins\GroupAndSortLayer\icon.png"
   inkscape:export-xdpi="96"
   inkscape:export-ydpi="96">
  <metadata
     id="metadata14">
    <rdf:RDF>
      <cc:Work
         rdf:about="">
        <dc:format>image/svg+xml</dc:format>
        <dc:type
           rdf:resource="http://purl.org/dc/dcmitype/StillImage" />
        <dc:title></dc:title>
      </cc:Work>
    </rdf:RDF>
  </metadata>
  <defs
     id="defs12" />
  <sodipodi:namedview
     pagecolor="#ffffff"
     bordercolor="#666666"
     borderopacity="1"
     objecttolerance="10"
     gridtolerance="10"
     guidetolerance="10"
     inkscape:pageopacity="0"
     inkscape:pageshadow="2"
     inkscape:window-width="1920"
     inkscape:window-height="1137"
     id="namedview10"
     showgrid="false"
     inkscape:zoom="4.8194244"
     inkscape:cx="42.25526"
     inkscape:cy="24.822208"
     inkscape:window-x="-8"
     inkscape:window-y="-8"
     inkscape:window-maximized="1"
     inkscape:current-layer="g6"
     showguides="true"
     inkscape:guide-bbox="true" />
  <g
     inkscape:groupmode="layer"
     id="layer1"
     inkscape:label="Layer 1"
     transform="translate(1.1089282,0.53942601)" />
  <g
     inkscape:groupmode="layer"
     id="layer2"
     inkscape:label="Layer 2"
     transform="translate(1.1089282,0.53942601)" />
  <g
     inkscape:groupmode="layer"
     id="layer3"
     inkscape:label="Layer 3"
     transform="translate(1.1089282,0.53942601)">
    <g
       style=""
       id="g892"
       inkscape:export-xdpi="96"
       inkscape:export-ydpi="96">
      <g
         inkscape:export-ydpi="96"
         inkscape:export-xdpi="96"
         id="g6"
         transform="matrix(1.0376119,0,0,1.0319544,-92.76985,-233.57503)"
         style="">
        <rect
           id="rect2"
           style="fill:#ffcc00;stroke:#000000;stroke-width:2.4635005;stroke-linecap:square;stroke-linejoin:round;stroke-miterlimit:21.20000076;paint-order:stroke markers fill"
           stroke-miterlimit="21.2"
           ry="7.2787714"
           height="23.120558"
           width="22.931725"
           y="227.05142"
           x="89.570099" />
        <flowRoot
           style="font-size:53.33333206px;line-height:1.25;font-family:sans-serif;text-align:center;letter-spacing:0px;word-spacing:0px;text-anchor:middle"
           id="flowRoot818"
           xml:space="preserve"><flowRegion
             style="font-size:53.33333206px"
             id="flowRegion820"><rect
               style="font-size:53.33333206px"
               y="61.418133"
               x="63.908047"
               height="87.147339"
               width="82.167488"
               id="rect822" /></flowRegion><flowPara
             id="flowPara824" /></flowRoot>      </g>
      <path
         sodipodi:nodetypes="cccccscscscccscsccccccccccccsccccccccccccccccccc"
         style="stroke-width:0.08701378"
         inkscape:connector-curvature="0"
         id="path4"
         d="m 98.582334,246.63685 c -0.70887,-0.7349 -1.194353,-1.31023 -1.228548,-1.45585 -0.04551,-0.19383 -0.006,-0.29291 0.202653,-0.50813 0.396955,-0.40942 0.621855,-0.36016 1.265129,0.27688 l 0.549513,0.54422 v -2.7535 c 0,-2.63549 0.0073,-2.76089 0.17136,-2.93013 0.106082,-0.10941 0.285594,-0.17674 0.471249,-0.17674 0.18564,0 0.36517,0.0673 0.47124,0.17674 0.16405,0.16919 0.17136,0.29456 0.17136,2.93556 v 2.75867 l 0.49308,-0.50323 c 0.63409,-0.64717 0.93477,-0.72747 1.30281,-0.34788 0.14327,0.14776 0.26049,0.3581 0.26049,0.46743 0,0.13738 -0.37597,0.58987 -1.21714,1.46487 -1.03779,1.07955 -1.25574,1.26612 -1.47915,1.26612 -0.222704,0 -0.437846,-0.18231 -1.434029,-1.21508 z m 4.295086,-3.37331 c -0.30633,-0.31596 -0.32031,-0.62015 -0.0437,-0.95185 l 0.20676,-0.24793 h 6.88423 l 0.20681,0.24793 c 0.27665,0.33167 0.26272,0.63589 -0.0437,0.95185 l -0.25045,0.25829 h -6.70953 z m 0.12346,-2.67295 c -0.19837,-0.0991 -0.37392,-0.42355 -0.37392,-0.6912 0,-0.0922 0.093,-0.27921 0.20677,-0.41559 l 0.20676,-0.24793 h 6.88424 l 0.20681,0.24793 c 0.27274,0.327 0.26579,0.68336 -0.0191,0.97716 l -0.22589,0.23298 -3.35131,-0.006 c -2.1209,-0.004 -3.41852,-0.0395 -3.53421,-0.0973 z m 0,-2.82772 c -0.39546,-0.1975 -0.48064,-0.76668 -0.1636,-1.09364 l 0.2103,-0.21691 h 6.87013 l 0.2103,0.21691 c 0.28101,0.28984 0.27496,0.66437 -0.0156,0.96403 l -0.22589,0.23297 -3.35131,-0.006 c -2.12091,-0.004 -3.41851,-0.0395 -3.53422,-0.0973 z"
         transform="translate(-88.33835,-225.81967)" />
      <g
         aria-label="Aa"
         transform="matrix(0.10802852,0,0,0.13491332,-4.51224,-5.4979801)"
         style="font-size:53.33333206px;line-height:1.25;font-family:sans-serif;text-align:center;letter-spacing:0px;word-spacing:0px;text-anchor:middle"
         id="flowRoot826">
        <path
           d="m 125.80143,128.6743 h -11.73958 l -4.66667,-12.14063 H 88.0306 L 83.619142,128.6743 H 72.171226 L 92.988933,75.226382 h 11.411457 z m -19.86979,-21.14584 -7.364582,-19.833329 -7.21875,19.833329 z"
           style="font-style:normal;font-variant:normal;font-weight:bold;font-stretch:normal;font-size:74.66666412px;font-family:Arial;-inkscape-font-specification:'Arial Bold'"
           id="path906" />
        <path
           d="m 139.14518,101.76805 -9.29687,-1.67709 q 1.56771,-5.614579 5.39583,-8.312495 3.82813,-2.697917 11.375,-2.697917 6.85417,0 10.20833,1.640625 3.35417,1.604167 4.70313,4.119791 1.38541,2.479167 1.38541,9.151046 l -0.10937,11.95833 q 0,5.10417 0.47396,7.54687 0.51041,2.40625 1.85937,5.17709 h -10.13541 q -0.40104,-1.02084 -0.98438,-3.02604 -0.25521,-0.91146 -0.36458,-1.20313 -2.625,2.55208 -5.61458,3.82813 -2.98959,1.27604 -6.38021,1.27604 -5.97917,0 -9.44271,-3.24479 -3.42708,-3.2448 -3.42708,-8.20313 0,-3.28125 1.5677,-5.83333 1.56771,-2.58854 4.375,-3.9375 2.84375,-1.38542 8.16667,-2.40625 7.18229,-1.34896 9.95313,-2.51563 v -1.02083 q 0,-2.953126 -1.45834,-4.192709 -1.45833,-1.276042 -5.50521,-1.276042 -2.73437,0 -4.26562,1.09375 -1.53125,1.057292 -2.47917,3.755211 z m 13.70834,8.3125 q -1.96875,0.65625 -6.23438,1.56771 -4.26562,0.91145 -5.57812,1.78645 -2.00521,1.42188 -2.00521,3.60938 0,2.15104 1.60416,3.71875 1.60417,1.56771 4.08334,1.56771 2.77083,0 5.28646,-1.82292 1.85937,-1.38542 2.4427,-3.39062 0.40105,-1.3125 0.40105,-4.9948 z"
           style="font-style:normal;font-variant:normal;font-weight:bold;font-stretch:normal;font-size:74.66666412px;font-family:Arial;-inkscape-font-specification:'Arial Bold'"
           id="path908" />
      </g>
    </g>
  </g>
</svg>
